<mxfile host="app.diagrams.net" modified="2022-10-09T06:57:56.599Z" agent="5.0 (X11)" etag="78l34h2aTWdBv0xg40Ex" version="20.4.0" type="github">
  <diagram id="r1s-BiyO_mbrU2x-ILbS" name="Page-1">
    <mxGraphModel dx="868" dy="383" grid="1" gridSize="10" guides="1" tooltips="1" connect="1" arrows="1" fold="1" page="1" pageScale="1" pageWidth="827" pageHeight="1169" math="0" shadow="0">
      <root>
        <mxCell id="0" />
        <mxCell id="1" parent="0" />
        <mxCell id="gKUYxWazinsRSjX0KHW3-3" value="" style="rounded=0;whiteSpace=wrap;html=1;dashed=1;dashPattern=1 1;" vertex="1" parent="1">
          <mxGeometry x="160" y="10" width="400" height="390" as="geometry" />
        </mxCell>
        <mxCell id="gKUYxWazinsRSjX0KHW3-7" value="ROBOTSTESTER" style="ellipse;whiteSpace=wrap;html=1;" vertex="1" parent="1">
          <mxGeometry x="170" y="20" width="120" height="60" as="geometry" />
        </mxCell>
        <mxCell id="gKUYxWazinsRSjX0KHW3-8" value="&lt;div&gt;MASSCAN TO&lt;/div&gt;&lt;div&gt;NMAP&lt;br&gt;&lt;/div&gt;" style="ellipse;whiteSpace=wrap;html=1;" vertex="1" parent="1">
          <mxGeometry x="414" y="20" width="120" height="60" as="geometry" />
        </mxCell>
        <mxCell id="gKUYxWazinsRSjX0KHW3-9" value="SHODAN&amp;nbsp; RECON" style="ellipse;whiteSpace=wrap;html=1;" vertex="1" parent="1">
          <mxGeometry x="170" y="100" width="120" height="70" as="geometry" />
        </mxCell>
        <mxCell id="gKUYxWazinsRSjX0KHW3-10" value="DORKSCAN" style="ellipse;whiteSpace=wrap;html=1;" vertex="1" parent="1">
          <mxGeometry x="414" y="100" width="120" height="70" as="geometry" />
        </mxCell>
        <mxCell id="gKUYxWazinsRSjX0KHW3-11" value="PYCAT" style="ellipse;whiteSpace=wrap;html=1;" vertex="1" parent="1">
          <mxGeometry x="170" y="200" width="120" height="70" as="geometry" />
        </mxCell>
        <mxCell id="gKUYxWazinsRSjX0KHW3-12" value="&lt;div&gt;TORRENT META&lt;/div&gt;&lt;div&gt;SEARCHER&lt;br&gt;&lt;/div&gt;" style="ellipse;whiteSpace=wrap;html=1;" vertex="1" parent="1">
          <mxGeometry x="414" y="200" width="120" height="75" as="geometry" />
        </mxCell>
        <mxCell id="gKUYxWazinsRSjX0KHW3-13" value="IPGEO" style="ellipse;whiteSpace=wrap;html=1;" vertex="1" parent="1">
          <mxGeometry x="170" y="310" width="120" height="70" as="geometry" />
        </mxCell>
        <mxCell id="gKUYxWazinsRSjX0KHW3-14" value="&lt;div&gt;WEBURL&lt;/div&gt;&lt;div&gt;SCRAPER&lt;br&gt;&lt;/div&gt;" style="ellipse;whiteSpace=wrap;html=1;" vertex="1" parent="1">
          <mxGeometry x="414" y="310" width="120" height="75" as="geometry" />
        </mxCell>
        <mxCell id="gKUYxWazinsRSjX0KHW3-22" style="edgeStyle=orthogonalEdgeStyle;rounded=0;orthogonalLoop=1;jettySize=auto;html=1;entryX=0;entryY=0.5;entryDx=0;entryDy=0;exitX=0.9;exitY=0.5;exitDx=0;exitDy=0;exitPerimeter=0;fillColor=#60a917;strokeColor=#2D7600;" edge="1" parent="1" source="gKUYxWazinsRSjX0KHW3-15" target="gKUYxWazinsRSjX0KHW3-7">
          <mxGeometry relative="1" as="geometry">
            <mxPoint x="150" y="60" as="targetPoint" />
          </mxGeometry>
        </mxCell>
        <mxCell id="gKUYxWazinsRSjX0KHW3-23" style="edgeStyle=orthogonalEdgeStyle;rounded=0;orthogonalLoop=1;jettySize=auto;html=1;exitX=1;exitY=0.75;exitDx=0;exitDy=0;entryX=0;entryY=0.5;entryDx=0;entryDy=0;fillColor=#60a917;strokeColor=#2D7600;" edge="1" parent="1" source="gKUYxWazinsRSjX0KHW3-15" target="gKUYxWazinsRSjX0KHW3-11">
          <mxGeometry relative="1" as="geometry" />
        </mxCell>
        <mxCell id="gKUYxWazinsRSjX0KHW3-27" style="edgeStyle=orthogonalEdgeStyle;rounded=0;orthogonalLoop=1;jettySize=auto;html=1;exitX=0.75;exitY=0.25;exitDx=0;exitDy=0;exitPerimeter=0;entryX=0;entryY=0.5;entryDx=0;entryDy=0;fillColor=#60a917;strokeColor=#2D7600;" edge="1" parent="1" source="gKUYxWazinsRSjX0KHW3-15" target="gKUYxWazinsRSjX0KHW3-8">
          <mxGeometry relative="1" as="geometry" />
        </mxCell>
        <mxCell id="gKUYxWazinsRSjX0KHW3-15" value="" style="shape=actor;whiteSpace=wrap;html=1;" vertex="1" parent="1">
          <mxGeometry x="40" y="140" width="40" height="60" as="geometry" />
        </mxCell>
        <mxCell id="gKUYxWazinsRSjX0KHW3-24" style="edgeStyle=orthogonalEdgeStyle;rounded=0;orthogonalLoop=1;jettySize=auto;html=1;exitX=0.1;exitY=0.5;exitDx=0;exitDy=0;exitPerimeter=0;entryX=0.65;entryY=0.029;entryDx=0;entryDy=0;entryPerimeter=0;fillColor=#dae8fc;strokeColor=#6c8ebf;" edge="1" parent="1" source="gKUYxWazinsRSjX0KHW3-17" target="gKUYxWazinsRSjX0KHW3-9">
          <mxGeometry relative="1" as="geometry" />
        </mxCell>
        <mxCell id="gKUYxWazinsRSjX0KHW3-25" style="edgeStyle=orthogonalEdgeStyle;rounded=0;orthogonalLoop=1;jettySize=auto;html=1;exitX=0.1;exitY=0.5;exitDx=0;exitDy=0;exitPerimeter=0;" edge="1" parent="1" source="gKUYxWazinsRSjX0KHW3-17">
          <mxGeometry relative="1" as="geometry">
            <mxPoint x="639" y="100" as="targetPoint" />
          </mxGeometry>
        </mxCell>
        <mxCell id="gKUYxWazinsRSjX0KHW3-26" style="edgeStyle=orthogonalEdgeStyle;rounded=0;orthogonalLoop=1;jettySize=auto;html=1;exitX=0;exitY=0.75;exitDx=0;exitDy=0;entryX=1;entryY=0.5;entryDx=0;entryDy=0;fillColor=#dae8fc;strokeColor=#6c8ebf;" edge="1" parent="1" source="gKUYxWazinsRSjX0KHW3-17" target="gKUYxWazinsRSjX0KHW3-13">
          <mxGeometry relative="1" as="geometry" />
        </mxCell>
        <mxCell id="gKUYxWazinsRSjX0KHW3-17" value="" style="shape=actor;whiteSpace=wrap;html=1;comic=0;" vertex="1" parent="1">
          <mxGeometry x="635" y="70" width="40" height="60" as="geometry" />
        </mxCell>
        <mxCell id="gKUYxWazinsRSjX0KHW3-28" style="edgeStyle=orthogonalEdgeStyle;rounded=0;orthogonalLoop=1;jettySize=auto;html=1;exitX=0.5;exitY=0;exitDx=0;exitDy=0;entryX=1;entryY=0.5;entryDx=0;entryDy=0;fillColor=#e51400;strokeColor=#B20000;" edge="1" parent="1" source="gKUYxWazinsRSjX0KHW3-18" target="gKUYxWazinsRSjX0KHW3-10">
          <mxGeometry relative="1" as="geometry" />
        </mxCell>
        <mxCell id="gKUYxWazinsRSjX0KHW3-29" style="edgeStyle=orthogonalEdgeStyle;rounded=0;orthogonalLoop=1;jettySize=auto;html=1;exitX=0.5;exitY=0;exitDx=0;exitDy=0;entryX=1;entryY=0.5;entryDx=0;entryDy=0;fillColor=#e51400;strokeColor=#B20000;" edge="1" parent="1" source="gKUYxWazinsRSjX0KHW3-18" target="gKUYxWazinsRSjX0KHW3-12">
          <mxGeometry relative="1" as="geometry" />
        </mxCell>
        <mxCell id="gKUYxWazinsRSjX0KHW3-30" style="edgeStyle=orthogonalEdgeStyle;rounded=0;orthogonalLoop=1;jettySize=auto;html=1;exitX=0;exitY=0.75;exitDx=0;exitDy=0;entryX=1;entryY=0.5;entryDx=0;entryDy=0;fillColor=#e51400;strokeColor=#B20000;" edge="1" parent="1" source="gKUYxWazinsRSjX0KHW3-18" target="gKUYxWazinsRSjX0KHW3-14">
          <mxGeometry relative="1" as="geometry" />
        </mxCell>
        <mxCell id="gKUYxWazinsRSjX0KHW3-18" value="" style="shape=actor;whiteSpace=wrap;html=1;comic=0;" vertex="1" parent="1">
          <mxGeometry x="635" y="275" width="40" height="60" as="geometry" />
        </mxCell>
        <mxCell id="gKUYxWazinsRSjX0KHW3-19" value="SOC ANALYST" style="text;html=1;resizable=0;autosize=1;align=center;verticalAlign=middle;points=[];fillColor=none;strokeColor=none;rounded=0;comic=0;" vertex="1" parent="1">
          <mxGeometry x="10" y="200" width="100" height="30" as="geometry" />
        </mxCell>
        <mxCell id="gKUYxWazinsRSjX0KHW3-20" value="&lt;div&gt;OSINT RESEARCHER&lt;br&gt;&lt;/div&gt;" style="text;html=1;resizable=0;autosize=1;align=center;verticalAlign=middle;points=[];fillColor=none;strokeColor=none;rounded=0;comic=0;" vertex="1" parent="1">
          <mxGeometry x="580" y="130" width="150" height="30" as="geometry" />
        </mxCell>
        <mxCell id="gKUYxWazinsRSjX0KHW3-21" value="PENETRATION TESTER" style="text;html=1;resizable=0;autosize=1;align=center;verticalAlign=middle;points=[];fillColor=none;strokeColor=none;rounded=0;comic=0;" vertex="1" parent="1">
          <mxGeometry x="575" y="332.5" width="160" height="30" as="geometry" />
        </mxCell>
      </root>
    </mxGraphModel>
  </diagram>
</mxfile>
